Normalized EMG Linear Envelopes
nRows=105
nColumns=4

endheader
time	 med_gas_r	  soleus_r	 tib_ant_r	
2.71976	  0.020706	  0.020080	  0.010760	
2.79133	  0.020068	  0.020307	  0.011409	
2.8629	  0.020036	  0.020465	  0.011722	
2.93448	  0.020497	  0.020882	  0.011378	
3.00605	  0.020650	  0.021363	  0.010998	
3.07762	  0.020591	  0.021580	  0.010748	
3.14919	  0.020656	  0.021563	  0.010679	
3.22077	  0.020946	  0.021247	  0.010891	
3.29234	  0.020964	  0.020907	  0.011331	
3.36391	  0.020978	  0.020925	  0.011727	
3.43548	  0.021214	  0.021056	  0.011705	
3.50706	  0.021669	  0.020940	  0.011465	
3.57863	  0.021503	  0.020787	  0.011292	
3.6502	  0.020610	  0.021008	  0.011300	
3.72177	  0.019624	  0.021146	  0.011480	
3.79335	  0.019334	  0.021447	  0.011568	
3.86492	  0.019845	  0.021884	  0.011499	
3.93649	  0.020466	  0.022293	  0.011417	
4.00806	  0.020715	  0.022672	  0.011520	
4.07964	  0.020659	  0.023225	  0.012036	
4.15121	  0.020463	  0.024328	  0.013022	
4.22278	  0.020706	  0.025708	  0.014028	
4.29435	  0.021203	  0.026854	  0.014656	
4.36593	  0.021657	  0.027567	  0.014582	
4.4375	  0.022197	  0.027737	  0.013998	
4.50907	  0.023070	  0.026902	  0.012673	
4.58065	  0.023967	  0.024981	  0.011181	
4.65222	  0.023750	  0.022889	  0.010979	
4.72379	  0.022454	  0.023648	  0.013394	
4.79536	  0.022033	  0.031350	  0.020114	
4.86694	  0.024718	  0.050782	  0.033491	
4.93851	  0.031533	  0.086795	  0.055299	
5.01008	  0.043285	  0.138771	  0.082602	
5.08165	  0.057460	  0.189168	  0.104141	
5.15323	  0.069561	  0.217057	  0.115201	
5.2248	  0.082810	  0.232026	  0.121224	
5.29637	  0.105397	  0.263884	  0.127497	
5.36794	  0.136261	  0.315935	  0.132054	
5.43952	  0.163350	  0.364393	  0.139460	
5.51109	  0.180282	  0.404379	  0.152581	
5.58266	  0.200056	  0.438209	  0.167255	
5.65423	  0.233610	  0.464434	  0.178458	
5.72581	  0.273193	  0.473316	  0.185658	
5.79738	  0.308068	  0.478935	  0.190144	
5.86895	  0.337142	  0.492263	  0.192428	
5.94052	  0.363208	  0.488682	  0.194045	
6.0121	  0.368976	  0.478508	  0.193324	
6.08367	  0.373201	  0.490788	  0.192309	
6.15524	  0.411446	  0.527127	  0.192202	
6.22681	  0.470291	  0.561095	  0.187816	
6.29839	  0.504668	  0.571879	  0.177924	
6.36996	  0.508915	  0.555157	  0.167081	
6.44153	  0.500096	  0.539908	  0.161816	
6.5131	  0.489886	  0.552232	  0.165995	
6.58468	  0.461735	  0.570796	  0.174451	
6.65625	  0.426218	  0.577124	  0.180933	
6.72782	  0.391993	  0.572011	  0.187496	
6.7994	  0.383576	  0.560645	  0.192638	
6.87097	  0.402362	  0.558698	  0.199870	
6.94254	  0.433234	  0.564672	  0.203131	
7.01411	  0.443958	  0.566850	  0.200432	
7.08569	  0.423680	  0.552378	  0.193401	
7.15726	  0.394350	  0.533853	  0.182768	
7.22883	  0.371019	  0.526008	  0.174375	
7.3004	  0.349376	  0.526629	  0.170866	
7.37198	  0.327297	  0.519485	  0.169764	
7.44355	  0.314895	  0.503839	  0.173284	
7.51512	  0.301891	  0.482387	  0.175254	
7.58669	  0.284345	  0.463815	  0.171975	
7.65827	  0.271986	  0.450723	  0.162338	
7.72984	  0.266088	  0.444440	  0.149789	
7.80141	  0.265682	  0.440711	  0.139440	
7.87298	  0.260856	  0.444171	  0.132132	
7.94456	  0.251251	  0.447189	  0.128113	
8.01613	  0.247332	  0.456087	  0.131532	
8.0877	  0.257916	  0.467796	  0.140273	
8.15927	  0.276982	  0.481496	  0.154490	
8.23085	  0.294896	  0.490028	  0.169542	
8.30242	  0.313178	  0.491742	  0.183616	
8.37399	  0.342231	  0.509819	  0.193964	
8.44556	  0.390315	  0.543020	  0.195705	
8.51714	  0.453523	  0.573764	  0.187753	
8.58871	  0.517383	  0.580606	  0.173238	
8.66028	  0.564575	  0.579259	  0.163447	
8.73185	  0.590330	  0.581048	  0.168242	
8.80343	  0.628457	  0.603250	  0.186126	
8.875	  0.680899	  0.651379	  0.210367	
8.94657	  0.717475	  0.699082	  0.232514	
9.01815	  0.718735	  0.722016	  0.239374	
9.08972	  0.703835	  0.705811	  0.233415	
9.16129	  0.692861	  0.662528	  0.221239	
9.23286	  0.689224	  0.646224	  0.211994	
9.30444	  0.681212	  0.655351	  0.202617	
9.37601	  0.645970	  0.660872	  0.187796	
9.44758	  0.592277	  0.650032	  0.173275	
9.51915	  0.543536	  0.622911	  0.163531	
9.59073	  0.518655	  0.621020	  0.167437	
9.6623	  0.533958	  0.648526	  0.184664	
9.73387	  0.570889	  0.668223	  0.203567	
9.80544	  0.592221	  0.650137	  0.213273	
9.87702	  0.576911	  0.615226	  0.210784	
9.94859	  0.530474	  0.580479	  0.195930	
10.0202	  0.465883	  0.519017	  0.172239	
10.0917	  0.380450	  0.423922	  0.143567	
10.1633	  0.288244	  0.307119	  0.116792	
